<svg width="262" height="68" viewBox="0 0 262 68" fill="none" xmlns="http://www.w3.org/2000/svg">
<path d="M1.45184 43.1924V32.2191H7.0401C8.38354 32.2191 9.41088 32.4731 10.1221 32.9811C10.8446 33.4778 11.2059 34.2004 11.2059 35.1487C11.2059 35.7583 11.0648 36.2437 10.7825 36.605C10.5116 36.955 10.1221 37.2203 9.61409 37.4009C9.10607 37.5703 8.50773 37.6775 7.81907 37.7227L7.88681 37.6211C8.38355 37.6323 8.85206 37.6775 9.29234 37.7565C9.74392 37.8243 10.139 37.9484 10.4777 38.1291C10.8277 38.3097 11.0986 38.5637 11.2906 38.8911C11.4938 39.2072 11.5954 39.6193 11.5954 40.1273C11.5954 40.8047 11.426 41.3635 11.0874 41.8038C10.7487 42.2441 10.2802 42.5828 9.68183 42.8198C9.08349 43.0456 8.39483 43.1698 7.61586 43.1924H1.45184ZM3.38233 41.5498H7.32798C8.0618 41.5498 8.63191 41.4256 9.03833 41.1772C9.44475 40.9176 9.64796 40.5168 9.64796 39.9749C9.64796 39.5459 9.52378 39.2354 9.27541 39.0435C9.02704 38.8403 8.70529 38.7105 8.31016 38.654C7.92632 38.5976 7.51426 38.5694 7.07397 38.5694H3.38233V41.5498ZM3.38233 36.9606H6.92157C7.65538 36.9606 8.21985 36.8364 8.61498 36.5881C9.0214 36.3284 9.22461 35.922 9.22461 35.3688C9.22461 34.8269 9.0214 34.4431 8.61498 34.2173C8.21985 33.9802 7.70054 33.8617 7.05704 33.8617H3.38233V36.9606ZM30.4388 38.5694V32.2191H32.3524V38.7218C32.3524 39.4104 32.2564 40.0144 32.0645 40.5337C31.8839 41.053 31.6242 41.4933 31.2855 41.8546C30.9469 42.2158 30.5461 42.515 30.0832 42.7521C29.6203 42.9779 29.1123 43.1416 28.5591 43.2432C28.0173 43.3448 27.4415 43.3956 26.8319 43.3956C26.1997 43.3956 25.6013 43.3448 25.0368 43.2432C24.4724 43.1416 23.9587 42.9779 23.4958 42.7521C23.033 42.515 22.6322 42.2158 22.2935 41.8546C21.9661 41.4933 21.7065 41.053 21.5145 40.5337C21.3339 40.0144 21.2436 39.4104 21.2436 38.7218V32.2191H23.1741V38.5694C23.1741 39.4274 23.3321 40.0821 23.6482 40.5337C23.9756 40.974 24.4159 41.2788 24.9691 41.4482C25.5223 41.6175 26.1432 41.7022 26.8319 41.7022C27.4979 41.7022 28.1019 41.6175 28.6438 41.4482C29.1857 41.2788 29.6203 40.974 29.9477 40.5337C30.2751 40.0821 30.4388 39.4274 30.4388 38.5694ZM44.5369 38.5186V41.5328H52.2419V43.1924H42.6064V32.2191H52.225V33.8786H44.5369V36.9268H50.8364V38.5186H44.5369ZM72.3432 41.1942L71.7675 41.4143V32.2191H73.681V43.1924H71.7675L63.5375 34.2681L64.1302 34.048V43.1924H62.1997V32.2191H64.1302L72.3432 41.1942ZM89.8698 43.3956C88.5828 43.3956 87.4595 43.1642 86.4999 42.7013C85.5516 42.2384 84.8121 41.5836 84.2815 40.7369C83.7622 39.8902 83.5026 38.8798 83.5026 37.7057C83.5026 36.5316 83.7622 35.5212 84.2815 34.6745C84.8121 33.8165 85.5516 33.1617 86.4999 32.7102C87.4595 32.2473 88.5828 32.0159 89.8698 32.0159C91.1681 32.0159 92.2914 32.2473 93.2397 32.7102C94.188 33.1617 94.9218 33.8165 95.4411 34.6745C95.9717 35.5212 96.237 36.5316 96.237 37.7057C96.237 38.8798 95.9717 39.8902 95.4411 40.7369C94.9218 41.5836 94.188 42.2384 93.2397 42.7013C92.2914 43.1642 91.1681 43.3956 89.8698 43.3956ZM89.8698 41.7022C90.7278 41.7022 91.4842 41.5554 92.139 41.2619C92.7938 40.9684 93.3074 40.5281 93.68 39.941C94.0638 39.3427 94.2557 38.5976 94.2557 37.7057C94.2557 36.8252 94.0638 36.0913 93.68 35.5043C93.3074 34.906 92.7938 34.46 92.139 34.1665C91.4842 33.8617 90.7278 33.7093 89.8698 33.7093C89.0231 33.7093 88.2667 33.8617 87.6006 34.1665C86.9346 34.46 86.4096 34.906 86.0258 35.5043C85.6419 36.0913 85.45 36.8252 85.45 37.7057C85.45 38.5976 85.6419 39.3427 86.0258 39.941C86.4096 40.5281 86.9346 40.9684 87.6006 41.2619C88.2667 41.5554 89.0231 41.7022 89.8698 41.7022Z" fill="#E9E9E9"/>
<path d="M152.159 43.1924V32.2191H157.747C159.091 32.2191 160.118 32.4731 160.829 32.9811C161.552 33.4778 161.913 34.2004 161.913 35.1487C161.913 35.7583 161.772 36.2437 161.49 36.605C161.219 36.955 160.829 37.2203 160.321 37.4009C159.813 37.5703 159.215 37.6775 158.526 37.7227L158.594 37.6211C159.091 37.6323 159.559 37.6775 159.999 37.7565C160.451 37.8243 160.846 37.9484 161.185 38.1291C161.535 38.3097 161.806 38.5637 161.998 38.8911C162.201 39.2072 162.302 39.6193 162.302 40.1273C162.302 40.8047 162.133 41.3635 161.794 41.8038C161.456 42.2441 160.987 42.5828 160.389 42.8198C159.791 43.0456 159.102 43.1698 158.323 43.1924H152.159ZM154.089 41.5498H158.035C158.769 41.5498 159.339 41.4256 159.745 41.1772C160.152 40.9176 160.355 40.5168 160.355 39.9749C160.355 39.5459 160.231 39.2354 159.983 39.0435C159.734 38.8403 159.412 38.7105 159.017 38.654C158.633 38.5976 158.221 38.5694 157.781 38.5694H154.089V41.5498ZM154.089 36.9606H157.629C158.362 36.9606 158.927 36.8364 159.322 36.5881C159.728 36.3284 159.932 35.922 159.932 35.3688C159.932 34.8269 159.728 34.4431 159.322 34.2173C158.927 33.9802 158.408 33.8617 157.764 33.8617H154.089V36.9606ZM173.881 38.5186V41.5328H181.586V43.1924H171.951V32.2191H181.569V33.8786H173.881V36.9268H180.181V38.5186H173.881ZM193.068 40.6184V38.9758H199.605V40.6184H193.068ZM190.528 43.1924L195.32 32.2191H197.386L202.213 43.1924H200.13L195.93 33.2859H196.777L192.594 43.1924H190.528ZM220.498 38.5694V32.2191H222.411V38.7218C222.411 39.4104 222.316 40.0144 222.124 40.5337C221.943 41.053 221.683 41.4933 221.345 41.8546C221.006 42.2158 220.605 42.515 220.142 42.7521C219.679 42.9779 219.171 43.1416 218.618 43.2432C218.076 43.3448 217.501 43.3956 216.891 43.3956C216.259 43.3956 215.66 43.3448 215.096 43.2432C214.531 43.1416 214.018 42.9779 213.555 42.7521C213.092 42.515 212.691 42.2158 212.353 41.8546C212.025 41.4933 211.766 41.053 211.574 40.5337C211.393 40.0144 211.303 39.4104 211.303 38.7218V32.2191H213.233V38.5694C213.233 39.4274 213.391 40.0821 213.707 40.5337C214.035 40.974 214.475 41.2788 215.028 41.4482C215.581 41.6175 216.202 41.7022 216.891 41.7022C217.557 41.7022 218.161 41.6175 218.703 41.4482C219.245 41.2788 219.679 40.974 220.007 40.5337C220.334 40.0821 220.498 39.4274 220.498 38.5694ZM231.649 32.2191H242.182V33.8786H231.649V32.2191ZM235.968 33.6754H237.881V43.1924H235.968V33.6754ZM261.504 32.2191L257.033 39.6193V43.1924H255.103V39.6193L250.632 32.2191H252.85L256.627 38.6879H255.577L259.302 32.2191H261.504Z" fill="#F1E4D9"/>
<path fill-rule="evenodd" clip-rule="evenodd" d="M135.748 10.3379C131.192 10.8057 132.477 14.5401 127.611 18.5481C124.574 21.0385 122.472 22.3212 120.136 24.1512C114.841 28.3146 111.842 33.0611 111.96 40.0645C113.205 28.7809 122.316 23.4892 126.053 20.7262C120.642 25.4726 118.15 29.4027 116.554 32.633C113.166 39.4796 113.011 44.5384 119.824 49.557C122.628 51.5811 126.521 54.0313 127.183 59.6731C125.508 56.7938 121.732 53.6037 118.617 52.7084C125.042 57.6505 128.039 61.4236 127.066 68C124.924 58.9739 114.335 56.2113 109.39 48.4674C97.8264 28.9751 119.707 25.4726 126.014 16.0964C119.318 22.7115 109.857 24.3453 105.341 34.1104C107.91 24.1512 111.725 21.1165 114.684 18.8982C119.863 15.1236 125.313 13.8781 127.804 6.79814C123.678 13.8408 119.746 14.1517 113.828 18.119C109.117 21.2719 104.6 26.1351 103.433 37.1451C98.4113 26.6396 104.134 11.933 111.648 5.35803C119.435 -1.45127 129.09 -2.81294 137.071 7.45863C147.506 13.606 151.244 27.5355 137.305 44.966C147.35 30.881 145.092 18.4701 139.174 13.4501C146.143 23.5662 141.744 33.0993 137.656 41.5424C135.125 46.7552 135.865 47.9227 138.084 53.2149C134.074 49.7124 135.163 46.4831 130.881 42.982C127.961 40.6471 124.34 39.2074 121.887 36.5616C120.563 35.0827 120.136 33.4882 121.887 29.5576C122.822 27.5742 123.834 27.2241 124.963 27.9626C126.014 28.7025 129.518 31.8146 129.986 29.1688C130.103 28.4289 129.947 28.0013 130.764 27.6517C131.309 27.4183 131.854 27.535 131.698 26.7563C131.62 26.3675 131.737 26.2121 132.204 26.1346C132.749 26.0179 132.711 25.8237 132.633 25.2005C132.399 23.6829 133.605 23.8776 134.346 23.6442C135.046 23.4108 135.046 22.867 134.852 22.2433C134.735 21.8937 134.657 21.5436 134.541 21.1939C134.19 19.9485 134.151 19.1311 134.307 18.2759L135.669 18.119L134.463 17.6527C135.514 15.0844 136.292 13.9183 135.748 10.3384L135.748 10.3379ZM138.902 19.1311C139.602 22.2433 139.329 25.5128 138.551 28.5088C137.189 33.6828 134.969 35.4333 133.918 41.7371C134.229 35.0832 136.254 32.9051 137.617 28.1572C138.356 25.5903 138.824 22.6336 138.902 19.1311ZM118.15 2.94557C108.573 7.41941 103.356 18.1965 103.2 28.5863C105.186 18.4314 108.417 9.71565 118.15 2.94557Z" fill="#CDA582"/>
</svg>
