<svg width="286" height="72" viewBox="0 0 286 72" fill="none" xmlns="http://www.w3.org/2000/svg">
<path d="M1.43845 45.7919V34.1731H7.35543C8.77789 34.1731 9.86566 34.4421 10.6187 34.98C11.3838 35.5059 11.7663 36.2709 11.7663 37.275C11.7663 37.9205 11.6169 38.4345 11.318 38.817C11.0311 39.1876 10.6187 39.4685 10.0808 39.6598C9.54292 39.8391 8.90938 39.9526 8.18022 40.0004L8.25194 39.8928C8.77789 39.9048 9.27396 39.9526 9.74015 40.0363C10.2183 40.108 10.6367 40.2395 10.9953 40.4308C11.3658 40.622 11.6527 40.891 11.8559 41.2376C12.0711 41.5723 12.1787 42.0086 12.1787 42.5465C12.1787 43.2637 11.9994 43.8554 11.6408 44.3216C11.2822 44.7878 10.7861 45.1464 10.1525 45.3974C9.51901 45.6365 8.78985 45.768 7.96506 45.7919H1.43845ZM3.48249 44.0527H7.66024C8.43722 44.0527 9.04087 43.9212 9.4712 43.6582C9.90152 43.3833 10.1167 42.9589 10.1167 42.3852C10.1167 41.9309 9.9852 41.6022 9.72222 41.399C9.45924 41.1838 9.11857 41.0464 8.7002 40.9866C8.29378 40.9268 7.85748 40.8969 7.39129 40.8969H3.48249V44.0527ZM3.48249 39.1936H7.22992C8.00689 39.1936 8.60457 39.0621 9.02294 38.7991C9.45327 38.5242 9.66843 38.0938 9.66843 37.5081C9.66843 36.9344 9.45327 36.5279 9.02294 36.2889C8.60457 36.0378 8.05471 35.9123 7.37336 35.9123H3.48249V39.1936ZM32.7581 40.8969V34.1731H34.7842V41.0583C34.7842 41.7875 34.6826 42.427 34.4794 42.9769C34.2882 43.5267 34.0132 43.9929 33.6546 44.3754C33.296 44.7579 32.8717 45.0747 32.3816 45.3257C31.8915 45.5648 31.3536 45.7381 30.7679 45.8457C30.1941 45.9533 29.5845 46.0071 28.939 46.0071C28.2696 46.0071 27.636 45.9533 27.0384 45.8457C26.4407 45.7381 25.8968 45.5648 25.4067 45.3257C24.9166 45.0747 24.4923 44.7579 24.1337 44.3754C23.787 43.9929 23.5121 43.5267 23.3089 42.9769C23.1176 42.427 23.022 41.7875 23.022 41.0583V34.1731H25.066V40.8969C25.066 41.8054 25.2334 42.4987 25.5681 42.9769C25.9147 43.443 26.3809 43.7658 26.9666 43.9451C27.5524 44.1244 28.2098 44.214 28.939 44.214C29.6442 44.214 30.2837 44.1244 30.8575 43.9451C31.4313 43.7658 31.8915 43.443 32.2381 42.9769C32.5848 42.4987 32.7581 41.8054 32.7581 40.8969ZM48.313 40.8432V44.0347H56.4713V45.7919H46.269V34.1731H56.4534V35.9303H48.313V39.1577H54.9831V40.8432H48.313ZM78.3826 43.6761L77.773 43.9092V34.1731H79.7991V45.7919H77.773L69.0589 36.3427L69.6864 36.1096V45.7919H67.6424V34.1731H69.6864L78.3826 43.6761ZM97.5677 46.0071C96.205 46.0071 95.0156 45.762 93.9996 45.2719C92.9955 44.7818 92.2125 44.0885 91.6507 43.192C91.1009 42.2955 90.8259 41.2257 90.8259 39.9825C90.8259 38.7393 91.1009 37.6695 91.6507 36.773C92.2125 35.8645 92.9955 35.1712 93.9996 34.6931C95.0156 34.203 96.205 33.9579 97.5677 33.9579C98.9423 33.9579 100.132 34.203 101.136 34.6931C102.14 35.1712 102.917 35.8645 103.467 36.773C104.029 37.6695 104.309 38.7393 104.309 39.9825C104.309 41.2257 104.029 42.2955 103.467 43.192C102.917 44.0885 102.14 44.7818 101.136 45.2719C100.132 45.762 98.9423 46.0071 97.5677 46.0071ZM97.5677 44.214C98.4762 44.214 99.277 44.0586 99.9703 43.7479C100.664 43.4371 101.208 42.9709 101.602 42.3493C102.008 41.7158 102.212 40.9268 102.212 39.9825C102.212 39.0501 102.008 38.2731 101.602 37.6516C101.208 37.018 100.664 36.5459 99.9703 36.2351C99.277 35.9123 98.4762 35.751 97.5677 35.751C96.6712 35.751 95.8703 35.9123 95.165 36.2351C94.4598 36.5459 93.9039 37.018 93.4975 37.6516C93.0911 38.2731 92.8879 39.0501 92.8879 39.9825C92.8879 40.9268 93.0911 41.7158 93.4975 42.3493C93.9039 42.9709 94.4598 43.4371 95.165 43.7479C95.8703 44.0586 96.6712 44.214 97.5677 44.214Z" fill="#525252"/>
<path d="M166.659 45.7919V34.1731H172.576C173.998 34.1731 175.086 34.4421 175.839 34.98C176.604 35.5059 176.987 36.2709 176.987 37.275C176.987 37.9205 176.837 38.4345 176.538 38.817C176.251 39.1876 175.839 39.4685 175.301 39.6598C174.763 39.8391 174.13 39.9526 173.4 40.0004L173.472 39.8928C173.998 39.9048 174.494 39.9526 174.96 40.0363C175.439 40.108 175.857 40.2395 176.216 40.4308C176.586 40.622 176.873 40.891 177.076 41.2376C177.291 41.5723 177.399 42.0086 177.399 42.5465C177.399 43.2637 177.22 43.8554 176.861 44.3216C176.502 44.7878 176.006 45.1464 175.373 45.3974C174.739 45.6365 174.01 45.768 173.185 45.7919H166.659ZM168.703 44.0527H172.88C173.657 44.0527 174.261 43.9212 174.691 43.6582C175.122 43.3833 175.337 42.9589 175.337 42.3852C175.337 41.9309 175.205 41.6022 174.942 41.399C174.679 41.1838 174.339 41.0464 173.92 40.9866C173.514 40.9268 173.078 40.8969 172.612 40.8969H168.703V44.0527ZM168.703 39.1936H172.45C173.227 39.1936 173.825 39.0621 174.243 38.7991C174.674 38.5242 174.889 38.0938 174.889 37.5081C174.889 36.9344 174.674 36.5279 174.243 36.2889C173.825 36.0378 173.275 35.9123 172.594 35.9123H168.703V39.1936ZM190.286 40.8432V44.0347H198.445V45.7919H188.242V34.1731H198.427V35.9303H190.286V39.1577H196.956V40.8432H190.286ZM211.229 43.0665V41.3273H218.15V43.0665H211.229ZM208.54 45.7919L213.614 34.1731H215.802L220.912 45.7919H218.706L214.26 35.3027H215.156L210.727 45.7919H208.54ZM240.9 40.8969V34.1731H242.926V41.0583C242.926 41.7875 242.825 42.427 242.622 42.9769C242.43 43.5267 242.155 43.9929 241.797 44.3754C241.438 44.7579 241.014 45.0747 240.524 45.3257C240.034 45.5648 239.496 45.7381 238.91 45.8457C238.336 45.9533 237.727 46.0071 237.081 46.0071C236.412 46.0071 235.778 45.9533 235.181 45.8457C234.583 45.7381 234.039 45.5648 233.549 45.3257C233.059 45.0747 232.634 44.7579 232.276 44.3754C231.929 43.9929 231.654 43.5267 231.451 42.9769C231.26 42.427 231.164 41.7875 231.164 41.0583V34.1731H233.208V40.8969C233.208 41.8054 233.376 42.4987 233.71 42.9769C234.057 43.443 234.523 43.7658 235.109 43.9451C235.695 44.1244 236.352 44.214 237.081 44.214C237.786 44.214 238.426 44.1244 239 43.9451C239.573 43.7658 240.034 43.443 240.38 42.9769C240.727 42.4987 240.9 41.8054 240.9 40.8969ZM253.335 34.1731H264.488V35.9303H253.335V34.1731ZM257.908 35.7151H259.934V45.7919H257.908V35.7151ZM285.573 34.1731L280.84 42.0086V45.7919H278.796V42.0086L274.062 34.1731H276.411L280.409 41.0225H279.298L283.242 34.1731H285.573Z" fill="#D9B79A"/>
<path fill-rule="evenodd" clip-rule="evenodd" d="M148.145 10.946C143.321 11.4413 144.682 15.3954 139.529 19.6391C136.314 22.2761 134.087 23.6342 131.614 25.5718C126.008 29.9802 122.833 35.0058 122.957 42.4213C124.276 30.4739 133.923 24.8709 137.88 21.9454C132.15 26.971 129.512 31.1322 127.822 34.5526C124.235 41.8019 124.07 47.1583 131.285 52.4721C134.253 54.6153 138.375 57.2096 139.076 63.1833C137.303 60.1347 133.304 56.7569 130.007 55.8089C136.809 61.0417 139.983 65.0368 138.952 72C136.684 62.4429 125.472 59.5179 120.236 51.3185C107.993 30.6795 131.16 26.971 137.838 17.0433C130.748 24.0475 120.731 25.7774 115.949 36.1169C118.669 25.5718 122.709 22.3586 125.842 20.0098C131.325 16.0132 137.096 14.6945 139.734 7.19803C135.365 14.655 131.202 14.9842 124.935 19.1849C119.947 22.5232 115.165 27.6724 113.929 39.3301C108.612 28.2067 114.672 12.6349 122.627 5.67321C130.872 -1.53664 141.095 -2.9784 149.546 7.89738C160.595 14.4063 164.552 29.1552 149.794 47.611C160.43 32.6976 158.038 19.5566 151.772 14.2412C159.152 24.9524 154.494 35.0463 150.165 43.9861C147.485 49.5055 148.269 50.7417 150.619 56.3452C146.372 52.6367 147.526 49.2174 142.992 45.5104C139.9 43.0381 136.066 41.5138 133.469 38.7123C132.067 37.1464 131.614 35.458 133.469 31.2963C134.458 29.1962 135.53 28.8255 136.725 29.6074C137.838 30.3909 141.549 33.6861 142.044 30.8846C142.168 30.1012 142.003 29.6484 142.867 29.2783C143.445 29.0311 144.022 29.1547 143.857 28.3302C143.774 27.9185 143.898 27.7539 144.393 27.6719C144.97 27.5483 144.929 27.3427 144.846 26.6829C144.599 25.076 145.876 25.2821 146.66 25.035C147.402 24.7879 147.402 24.2121 147.196 23.5517C147.072 23.1815 146.99 22.8108 146.867 22.4406C146.495 21.1219 146.454 20.2565 146.619 19.351L148.061 19.1849L146.784 18.6911C147.897 15.9717 148.721 14.737 148.145 10.9465L148.145 10.946ZM151.484 20.2565C152.226 23.5517 151.937 27.0136 151.113 30.1858C149.67 35.6642 147.32 37.5176 146.207 44.1922C146.537 37.1469 148.681 34.8407 150.123 29.8135C150.907 27.0956 151.401 23.9649 151.484 20.2565ZM129.512 3.11884C119.371 7.85585 113.847 19.2669 113.682 30.2678C115.785 19.5156 119.206 10.2872 129.512 3.11884Z" fill="#CDA582"/>
</svg>
